<svg width="32" height="32" viewBox="0 0 32 32" fill="none" xmlns="http://www.w3.org/2000/svg">
<path fill-rule="evenodd" clip-rule="evenodd" d="M32 16C32 24.8366 24.8366 32 16 32C7.16344 32 0 24.8366 0 16C0 7.16344 7.16344 0 16 0C24.8366 0 32 7.16344 32 16ZM22.3787 15.1734V9.15745C22.3781 9.01008 22.347 8.86443 22.2873 8.72968C22.2277 8.59493 22.1407 8.47401 22.032 8.37454C21.9232 8.27507 21.7951 8.19921 21.6555 8.15175C21.516 8.10429 21.3682 8.08626 21.2213 8.09878C17.7945 8.32587 14.5666 9.78977 12.1382 12.2183C9.70967 14.6468 8.24576 17.8746 8.01868 21.3015C8.00648 21.4487 8.02503 21.597 8.07315 21.7367C8.12127 21.8765 8.1979 22.0047 8.29819 22.1133C8.39848 22.2218 8.52024 22.3084 8.65575 22.3674C8.79125 22.4264 8.93754 22.4566 9.08534 22.4561H15.0933C15.3546 22.4582 15.6075 22.3643 15.8041 22.1922C16.0007 22.0202 16.1274 21.782 16.16 21.5228C16.3606 20.1929 16.9821 18.9624 17.9333 18.0116C18.8845 17.0609 20.1154 16.44 21.4453 16.2401C21.7045 16.2075 21.9428 16.0808 22.1148 15.8842C22.2868 15.6876 22.3807 15.4347 22.3787 15.1734Z" fill="#1772E0"/>
</svg>
