<svg width="32" height="32" viewBox="0 0 32 32" fill="none" xmlns="http://www.w3.org/2000/svg">
<g clip-path="url(#clip0_331_33559)">
<path d="M29.1664 6.90641L21.8832 14.1896C20.8836 15.1892 20.8836 16.8104 21.8832 17.81L29.1664 25.0932C30.9532 22.5108 32 19.3776 32 15.9996C32 12.6216 30.9532 9.48841 29.1664 6.90601V6.90641Z" fill="#FFC700"/>
<path d="M16 22.4C12.4652 22.4 9.6 19.5348 9.6 16C9.6 12.4652 12.4652 9.6 16 9.6C18.1136 9.6 19.9876 10.6248 21.1532 12.2044L27.9724 5.3852C25.0412 2.082 20.7636 0 16 0C7.1636 0 0 7.1636 0 16C0 24.8364 7.1636 32 16 32C20.7636 32 25.0412 29.918 27.9724 26.6148L21.1532 19.7956C19.9876 21.3752 18.1136 22.4 16 22.4V22.4Z" fill="#F87100"/>
</g>
<defs>
<clipPath id="clip0_331_33559">
<rect width="32" height="32" fill="white"/>
</clipPath>
</defs>
</svg>
