<svg width="32" height="32" viewBox="0 0 32 32" fill="none" xmlns="http://www.w3.org/2000/svg">
<g clip-path="url(#clip0_331_33565)">
<path fill-rule="evenodd" clip-rule="evenodd" d="M8.32911 12.5107C8.39656 12.3782 8.51635 12.3165 8.66172 12.3165C8.80709 12.3165 8.92803 12.377 8.99548 12.5107L9.67 13.8249L11.2179 10.8221C10.7074 9.82895 9.77234 9.28003 8.66055 9.28003C7.54876 9.28003 6.61607 9.83011 6.10669 10.8221L0 22.7157H3.08882L8.32911 12.5107Z" fill="#1D365A"/>
<path fill-rule="evenodd" clip-rule="evenodd" d="M9.67004 13.8247L10.1201 14.6969L11.6634 11.6906L11.2179 10.8219L9.67004 13.8247Z" fill="#1684B0"/>
<path fill-rule="evenodd" clip-rule="evenodd" d="M11.6634 11.6907L10.1201 14.6958L11.6634 17.702L13.2066 14.6969L11.6634 11.6907Z" fill="#60BAE8"/>
<path fill-rule="evenodd" clip-rule="evenodd" d="M9.91662 18.1709L9.46656 17.2998L7.92331 20.3061L8.36872 21.1748L9.91662 18.1709Z" fill="#1684B0"/>
<path fill-rule="evenodd" clip-rule="evenodd" d="M7.92319 20.3061L9.46644 17.2998L7.92319 14.2936L6.37994 17.2987L7.92319 20.3061Z" fill="#60BAE8"/>
<path fill-rule="evenodd" clip-rule="evenodd" d="M23.6721 12.5107C23.6046 12.3782 23.4848 12.3165 23.3395 12.3165C23.1941 12.3165 23.0743 12.377 23.0057 12.5107L18.5574 21.1748C18.048 22.1668 17.1118 22.7169 16.0023 22.7169C14.8929 22.7169 13.9765 22.1796 13.4624 21.2073C12.9496 22.1784 12.0227 22.7169 10.9249 22.7169C9.82703 22.7169 8.87922 22.1679 8.36868 21.1748L9.91542 18.172L10.5899 19.4862C10.6585 19.6187 10.7772 19.6804 10.9237 19.6804C11.0702 19.6804 11.1889 19.6187 11.2563 19.4862L16.4978 9.28003H19.5866L15.008 18.1988L15.6686 19.485C15.7372 19.6176 15.857 19.6792 16.0023 19.6792C16.1477 19.6792 16.2675 19.6176 16.335 19.485L20.7833 10.8221C21.2938 9.82895 22.2288 9.28003 23.3395 9.28003C24.4501 9.28003 25.3839 9.83011 25.8933 10.8221L32 22.7169H28.9112L23.6721 12.5107Z" fill="#1D365A"/>
</g>
<defs>
<clipPath id="clip0_331_33565">
<rect width="32" height="32" fill="white"/>
</clipPath>
</defs>
</svg>
