<svg width="32" height="32" viewBox="0 0 32 32" fill="none" xmlns="http://www.w3.org/2000/svg">
<g clip-path="url(#clip0_331_33478)">
<path d="M16 26.88H10.88V22.116C10.88 20.9107 11.3067 19.8807 12.16 19.026L19.026 12.16C19.8804 11.3056 20.9104 10.8789 22.116 10.88H26.88V16H32C32 7.1636 24.8364 0 16 0C7.1636 0 0 7.1636 0 16C0 24.8364 7.1636 32 16 32V26.88Z" fill="#ED0022"/>
<path d="M16.498 16.498C16.1792 16.8168 16 17.2492 16 17.7004V27.236C16 26.0307 16.4267 25.0007 17.28 24.146L24.146 17.28C25.0004 16.4256 26.0304 15.9989 27.236 16H17.7004C17.2496 16 16.8168 16.1792 16.498 16.498Z" fill="#E4E7EC"/>
<path d="M22.8204 21.12C22.3696 21.12 21.9368 21.2992 21.618 21.618C21.2992 21.9368 21.12 22.3692 21.12 22.8204V31.1632C25.838 29.5708 29.5708 25.838 31.1632 21.12H22.8204V21.12Z" fill="#E4E7EC"/>
</g>
<defs>
<clipPath id="clip0_331_33478">
<rect width="32" height="32" fill="white"/>
</clipPath>
</defs>
</svg>
