<svg width="32" height="32" viewBox="0 0 32 32" fill="none" xmlns="http://www.w3.org/2000/svg">
<path d="M16 6.6668L8 11.3364L0 6.6668L8 2L16 6.6668Z" fill="#48484A"/>
<path d="M8 11.3366V20.6638L0 16.0002V6.66699L8 11.3366Z" fill="#3A3A3C"/>
<path d="M16 25.3332L24 20.6636L32 25.3332L24 30L16 25.3332Z" fill="#FB6514"/>
<path d="M24 20.6636V11.3364L32 16V25.3332L24 20.6636Z" fill="#FB6514"/>
<path d="M32 6.6668V16L24 11.3364V2L32 6.6668Z" fill="#FB6514"/>
<path d="M16 6.6668V16L24 11.3364V2L16 6.6668Z" fill="#FB6514"/>
<path d="M0 25.3332V16L8 20.6636V30L0 25.3332Z" fill="#FB6514"/>
<path d="M16 25.3332V16L8 20.6636V30L16 25.3332Z" fill="#FB6514"/>
</svg>
