<svg width="248" height="229" viewBox="0 0 248 229" fill="none" xmlns="http://www.w3.org/2000/svg">
<rect y="12" width="248" height="140" rx="2" fill="#EC4A0A"/>
<mask id="mask0_331_33898" style="mask-type:alpha" maskUnits="userSpaceOnUse" x="0" y="12" width="248" height="140">
<rect y="12" width="248" height="140" rx="2" fill="white"/>
</mask>
<g mask="url(#mask0_331_33898)">
<rect x="19" y="130" width="14" height="2" rx="0.25" fill="#FB6514"/>
<rect x="25" y="124" width="2" height="14" rx="0.25" fill="#FB6514"/>
<rect x="25" y="144" width="2" height="2" rx="0.25" fill="#FB6514"/>
<rect x="39" y="130" width="2" height="2" rx="0.25" fill="#FB6514"/>
<rect x="39" y="144" width="2" height="2" rx="0.25" fill="#FB6514"/>
<rect x="53" y="130" width="2" height="2" rx="0.25" fill="#FB6514"/>
<rect x="53" y="144" width="2" height="2" rx="0.25" fill="#FB6514"/>
<rect x="67" y="130" width="2" height="2" rx="0.25" fill="#FB6514"/>
<rect x="67" y="144" width="2" height="2" rx="0.25" fill="#FB6514"/>
<rect x="81" y="130" width="2" height="2" rx="0.25" fill="#FB6514"/>
<rect x="81" y="144" width="2" height="2" rx="0.25" fill="#FB6514"/>
<rect x="95" y="130" width="2" height="2" rx="0.25" fill="#FB6514"/>
<rect x="95" y="144" width="2" height="2" rx="0.25" fill="#FB6514"/>
<rect x="109" y="144" width="2" height="2" rx="0.25" fill="#FB6514"/>
<rect x="123" y="144" width="2" height="2" rx="0.25" fill="#FB6514"/>
<rect x="109" y="130" width="2" height="2" rx="0.25" fill="#FB6514"/>
<rect x="117" y="130" width="14" height="2" rx="0.25" fill="#FB6514"/>
<rect x="123" y="124" width="2" height="14" rx="0.25" fill="#FB6514"/>
<rect x="215" y="130" width="14" height="2" rx="0.25" fill="#FB6514"/>
<rect x="221" y="124" width="2" height="14" rx="0.25" fill="#FB6514"/>
<rect x="221" y="144" width="2" height="2" rx="0.25" fill="#FB6514"/>
<rect x="235" y="130" width="2" height="2" rx="0.25" fill="#FB6514"/>
<rect x="235" y="144" width="2" height="2" rx="0.25" fill="#FB6514"/>
<rect x="19" y="32" width="14" height="2" rx="0.25" fill="#FB6514"/>
<rect x="25" y="26" width="2" height="14" rx="0.25" fill="#FB6514"/>
<rect x="25" y="46" width="2" height="2" rx="0.25" fill="#FB6514"/>
<rect x="25" y="60" width="2" height="2" rx="0.25" fill="#FB6514"/>
<rect x="25" y="74" width="2" height="2" rx="0.25" fill="#FB6514"/>
<rect x="25" y="88" width="2" height="2" rx="0.25" fill="#FB6514"/>
<rect x="25" y="102" width="2" height="2" rx="0.25" fill="#FB6514"/>
<rect x="25" y="116" width="2" height="2" rx="0.25" fill="#FB6514"/>
<rect x="19" y="130" width="14" height="2" rx="0.25" fill="#FB6514"/>
<rect x="25" y="124" width="2" height="14" rx="0.25" fill="#FB6514"/>
<rect x="39" y="116" width="2" height="2" rx="0.25" fill="#FB6514"/>
<rect x="39" y="130" width="2" height="2" rx="0.25" fill="#FB6514"/>
<rect x="39" y="32" width="2" height="2" rx="0.25" fill="#FB6514"/>
<rect x="39" y="46" width="2" height="2" rx="0.25" fill="#FB6514"/>
<rect x="39" y="60" width="2" height="2" rx="0.25" fill="#FB6514"/>
<rect x="39" y="74" width="2" height="2" rx="0.25" fill="#FB6514"/>
<rect x="39" y="88" width="2" height="2" rx="0.25" fill="#FB6514"/>
<rect x="39" y="102" width="2" height="2" rx="0.25" fill="#FB6514"/>
<rect x="53" y="116" width="2" height="2" rx="0.25" fill="#FB6514"/>
<rect x="53" y="130" width="2" height="2" rx="0.25" fill="#FB6514"/>
<rect x="53" y="32" width="2" height="2" rx="0.25" fill="#FB6514"/>
<rect x="53" y="46" width="2" height="2" rx="0.25" fill="#FB6514"/>
<rect x="53" y="60" width="2" height="2" rx="0.25" fill="#FB6514"/>
<rect x="53" y="74" width="2" height="2" rx="0.25" fill="#FB6514"/>
<rect x="53" y="88" width="2" height="2" rx="0.25" fill="#FB6514"/>
<rect x="53" y="102" width="2" height="2" rx="0.25" fill="#FB6514"/>
<rect x="67" y="116" width="2" height="2" rx="0.25" fill="#FB6514"/>
<rect x="67" y="130" width="2" height="2" rx="0.25" fill="#FB6514"/>
<rect x="67" y="32" width="2" height="2" rx="0.25" fill="#FB6514"/>
<rect x="67" y="46" width="2" height="2" rx="0.25" fill="#FB6514"/>
<rect x="67" y="60" width="2" height="2" rx="0.25" fill="#FB6514"/>
<rect x="67" y="74" width="2" height="2" rx="0.25" fill="#FB6514"/>
<rect x="67" y="88" width="2" height="2" rx="0.25" fill="#FB6514"/>
<rect x="67" y="102" width="2" height="2" rx="0.25" fill="#FB6514"/>
<rect x="81" y="116" width="2" height="2" rx="0.25" fill="#FB6514"/>
<rect x="81" y="130" width="2" height="2" rx="0.25" fill="#FB6514"/>
<rect x="81" y="32" width="2" height="2" rx="0.25" fill="#FB6514"/>
<rect x="81" y="46" width="2" height="2" rx="0.25" fill="#FB6514"/>
<rect x="81" y="60" width="2" height="2" rx="0.25" fill="#FB6514"/>
<rect x="81" y="74" width="2" height="2" rx="0.25" fill="#FB6514"/>
<rect x="81" y="88" width="2" height="2" rx="0.25" fill="#FB6514"/>
<rect x="81" y="102" width="2" height="2" rx="0.25" fill="#FB6514"/>
<rect x="95" y="116" width="2" height="2" rx="0.25" fill="#FB6514"/>
<rect x="95" y="130" width="2" height="2" rx="0.25" fill="#FB6514"/>
<rect x="95" y="32" width="2" height="2" rx="0.25" fill="#FB6514"/>
<rect x="95" y="46" width="2" height="2" rx="0.25" fill="#FB6514"/>
<rect x="95" y="60" width="2" height="2" rx="0.25" fill="#FB6514"/>
<rect x="95" y="74" width="2" height="2" rx="0.25" fill="#FB6514"/>
<rect x="95" y="88" width="2" height="2" rx="0.25" fill="#FB6514"/>
<rect x="95" y="102" width="2" height="2" rx="0.25" fill="#FB6514"/>
<rect x="109" y="46" width="2" height="2" rx="0.25" fill="#FB6514"/>
<rect x="123" y="46" width="2" height="2" rx="0.25" fill="#FB6514"/>
<rect x="109" y="32" width="2" height="2" rx="0.25" fill="#FB6514"/>
<rect x="117" y="32" width="14" height="2" rx="0.25" fill="#FB6514"/>
<rect x="123" y="26" width="2" height="14" rx="0.25" fill="#FB6514"/>
<rect x="117" y="130" width="14" height="2" rx="0.25" fill="#FB6514"/>
<rect x="123" y="124" width="2" height="14" rx="0.25" fill="#FB6514"/>
<rect x="109" y="60" width="2" height="2" rx="0.25" fill="#FB6514"/>
<rect x="123" y="60" width="2" height="2" rx="0.25" fill="#FB6514"/>
<rect x="109" y="74" width="2" height="2" rx="0.25" fill="#FB6514"/>
<rect x="123" y="74" width="2" height="2" rx="0.25" fill="#FB6514"/>
<rect x="109" y="88" width="2" height="2" rx="0.25" fill="#FB6514"/>
<rect x="123" y="88" width="2" height="2" rx="0.25" fill="#FB6514"/>
<rect x="109" y="102" width="2" height="2" rx="0.25" fill="#FB6514"/>
<rect x="123" y="102" width="2" height="2" rx="0.25" fill="#FB6514"/>
<rect x="109" y="116" width="2" height="2" rx="0.25" fill="#FB6514"/>
<rect x="109" y="130" width="2" height="2" rx="0.25" fill="#FB6514"/>
<rect x="123" y="116" width="2" height="2" rx="0.25" fill="#FB6514"/>
<rect x="215" y="32" width="14" height="2" rx="0.25" fill="#FB6514"/>
<rect x="221" y="26" width="2" height="14" rx="0.25" fill="#FB6514"/>
<rect x="221" y="46" width="2" height="2" rx="0.25" fill="#FB6514"/>
<rect x="221" y="60" width="2" height="2" rx="0.25" fill="#FB6514"/>
<rect x="221" y="74" width="2" height="2" rx="0.25" fill="#FB6514"/>
<rect x="221" y="88" width="2" height="2" rx="0.25" fill="#FB6514"/>
<rect x="221" y="102" width="2" height="2" rx="0.25" fill="#FB6514"/>
<rect x="221" y="116" width="2" height="2" rx="0.25" fill="#FB6514"/>
<rect x="215" y="130" width="14" height="2" rx="0.25" fill="#FB6514"/>
<rect x="221" y="124" width="2" height="14" rx="0.25" fill="#FB6514"/>
<rect x="235" y="116" width="2" height="2" rx="0.25" fill="#FB6514"/>
<rect x="235" y="130" width="2" height="2" rx="0.25" fill="#FB6514"/>
<rect x="235" y="32" width="2" height="2" rx="0.25" fill="#FB6514"/>
<rect x="235" y="46" width="2" height="2" rx="0.25" fill="#FB6514"/>
<rect x="235" y="60" width="2" height="2" rx="0.25" fill="#FB6514"/>
<rect x="235" y="74" width="2" height="2" rx="0.25" fill="#FB6514"/>
<rect x="235" y="88" width="2" height="2" rx="0.25" fill="#FB6514"/>
<rect x="235" y="102" width="2" height="2" rx="0.25" fill="#FB6514"/>
<rect x="25" y="18" width="2" height="2" rx="0.25" fill="#FB6514"/>
<rect x="19" y="32" width="14" height="2" rx="0.25" fill="#FB6514"/>
<rect x="25" y="26" width="2" height="14" rx="0.25" fill="#FB6514"/>
<rect x="39" y="18" width="2" height="2" rx="0.25" fill="#FB6514"/>
<rect x="39" y="32" width="2" height="2" rx="0.25" fill="#FB6514"/>
<rect x="53" y="18" width="2" height="2" rx="0.25" fill="#FB6514"/>
<rect x="53" y="32" width="2" height="2" rx="0.25" fill="#FB6514"/>
<rect x="67" y="18" width="2" height="2" rx="0.25" fill="#FB6514"/>
<rect x="67" y="32" width="2" height="2" rx="0.25" fill="#FB6514"/>
<rect x="81" y="18" width="2" height="2" rx="0.25" fill="#FB6514"/>
<rect x="81" y="32" width="2" height="2" rx="0.25" fill="#FB6514"/>
<rect x="95" y="18" width="2" height="2" rx="0.25" fill="#FB6514"/>
<rect x="95" y="32" width="2" height="2" rx="0.25" fill="#FB6514"/>
<rect x="117" y="32" width="14" height="2" rx="0.25" fill="#FB6514"/>
<rect x="123" y="26" width="2" height="14" rx="0.25" fill="#FB6514"/>
<rect x="109" y="18" width="2" height="2" rx="0.25" fill="#FB6514"/>
<rect x="109" y="32" width="2" height="2" rx="0.25" fill="#FB6514"/>
<rect x="123" y="18" width="2" height="2" rx="0.25" fill="#FB6514"/>
<rect x="221" y="18" width="2" height="2" rx="0.25" fill="#FB6514"/>
<rect x="215" y="32" width="14" height="2" rx="0.25" fill="#FB6514"/>
<rect x="221" y="26" width="2" height="14" rx="0.25" fill="#FB6514"/>
<rect x="235" y="18" width="2" height="2" rx="0.25" fill="#FB6514"/>
<rect x="235" y="32" width="2" height="2" rx="0.25" fill="#FB6514"/>
<rect x="11" y="144" width="2" height="2" rx="0.25" fill="#FB6514"/>
<rect x="25" y="144" width="2" height="2" rx="0.25" fill="#FB6514"/>
<rect x="11" y="130" width="2" height="2" rx="0.25" fill="#FB6514"/>
<rect x="19" y="130" width="14" height="2" rx="0.25" fill="#FB6514"/>
<rect x="25" y="124" width="2" height="14" rx="0.25" fill="#FB6514"/>
<rect x="117" y="130" width="14" height="2" rx="0.25" fill="#FB6514"/>
<rect x="123" y="124" width="2" height="14" rx="0.25" fill="#FB6514"/>
<rect x="123" y="144" width="2" height="2" rx="0.25" fill="#FB6514"/>
<rect x="137" y="130" width="2" height="2" rx="0.25" fill="#FB6514"/>
<rect x="137" y="144" width="2" height="2" rx="0.25" fill="#FB6514"/>
<rect x="151" y="130" width="2" height="2" rx="0.25" fill="#FB6514"/>
<rect x="151" y="144" width="2" height="2" rx="0.25" fill="#FB6514"/>
<rect x="165" y="130" width="2" height="2" rx="0.25" fill="#FB6514"/>
<rect x="165" y="144" width="2" height="2" rx="0.25" fill="#FB6514"/>
<rect x="179" y="130" width="2" height="2" rx="0.25" fill="#FB6514"/>
<rect x="179" y="144" width="2" height="2" rx="0.25" fill="#FB6514"/>
<rect x="193" y="130" width="2" height="2" rx="0.25" fill="#FB6514"/>
<rect x="193" y="144" width="2" height="2" rx="0.25" fill="#FB6514"/>
<rect x="207" y="144" width="2" height="2" rx="0.25" fill="#FB6514"/>
<rect x="221" y="144" width="2" height="2" rx="0.25" fill="#FB6514"/>
<rect x="207" y="130" width="2" height="2" rx="0.25" fill="#FB6514"/>
<rect x="215" y="130" width="14" height="2" rx="0.25" fill="#FB6514"/>
<rect x="221" y="124" width="2" height="14" rx="0.25" fill="#FB6514"/>
<rect x="11" y="46" width="2" height="2" rx="0.25" fill="#FB6514"/>
<rect x="25" y="46" width="2" height="2" rx="0.25" fill="#FB6514"/>
<rect x="11" y="32" width="2" height="2" rx="0.25" fill="#FB6514"/>
<rect x="19" y="32" width="14" height="2" rx="0.25" fill="#FB6514"/>
<rect x="25" y="26" width="2" height="14" rx="0.25" fill="#FB6514"/>
<rect x="19" y="130" width="14" height="2" rx="0.25" fill="#FB6514"/>
<rect x="25" y="124" width="2" height="14" rx="0.25" fill="#FB6514"/>
<rect x="11" y="60" width="2" height="2" rx="0.25" fill="#FB6514"/>
<rect x="25" y="60" width="2" height="2" rx="0.25" fill="#FB6514"/>
<rect x="11" y="74" width="2" height="2" rx="0.25" fill="#FB6514"/>
<rect x="25" y="74" width="2" height="2" rx="0.25" fill="#FB6514"/>
<rect x="11" y="88" width="2" height="2" rx="0.25" fill="#FB6514"/>
<rect x="25" y="88" width="2" height="2" rx="0.25" fill="#FB6514"/>
<rect x="11" y="102" width="2" height="2" rx="0.25" fill="#FB6514"/>
<rect x="25" y="102" width="2" height="2" rx="0.25" fill="#FB6514"/>
<rect x="11" y="116" width="2" height="2" rx="0.25" fill="#FB6514"/>
<rect x="11" y="130" width="2" height="2" rx="0.25" fill="#FB6514"/>
<rect x="25" y="116" width="2" height="2" rx="0.25" fill="#FB6514"/>
<rect x="117" y="32" width="14" height="2" rx="0.25" fill="#FB6514"/>
<rect x="123" y="26" width="2" height="14" rx="0.25" fill="#FB6514"/>
<rect x="123" y="46" width="2" height="2" rx="0.25" fill="#FB6514"/>
<rect x="123" y="60" width="2" height="2" rx="0.25" fill="#FB6514"/>
<rect x="123" y="74" width="2" height="2" rx="0.25" fill="#FB6514"/>
<rect x="123" y="88" width="2" height="2" rx="0.25" fill="#FB6514"/>
<rect x="123" y="102" width="2" height="2" rx="0.25" fill="#FB6514"/>
<rect x="123" y="116" width="2" height="2" rx="0.25" fill="#FB6514"/>
<rect x="117" y="130" width="14" height="2" rx="0.25" fill="#FB6514"/>
<rect x="123" y="124" width="2" height="14" rx="0.25" fill="#FB6514"/>
<rect x="137" y="116" width="2" height="2" rx="0.25" fill="#FB6514"/>
<rect x="137" y="130" width="2" height="2" rx="0.25" fill="#FB6514"/>
<rect x="137" y="32" width="2" height="2" rx="0.25" fill="#FB6514"/>
<rect x="137" y="46" width="2" height="2" rx="0.25" fill="#FB6514"/>
<rect x="137" y="60" width="2" height="2" rx="0.25" fill="#FB6514"/>
<rect x="137" y="74" width="2" height="2" rx="0.25" fill="#FB6514"/>
<rect x="137" y="88" width="2" height="2" rx="0.25" fill="#FB6514"/>
<rect x="137" y="102" width="2" height="2" rx="0.25" fill="#FB6514"/>
<rect x="151" y="116" width="2" height="2" rx="0.25" fill="#FB6514"/>
<rect x="151" y="130" width="2" height="2" rx="0.25" fill="#FB6514"/>
<rect x="151" y="32" width="2" height="2" rx="0.25" fill="#FB6514"/>
<rect x="151" y="46" width="2" height="2" rx="0.25" fill="#FB6514"/>
<rect x="151" y="60" width="2" height="2" rx="0.25" fill="#FB6514"/>
<rect x="151" y="74" width="2" height="2" rx="0.25" fill="#FB6514"/>
<rect x="151" y="88" width="2" height="2" rx="0.25" fill="#FB6514"/>
<rect x="151" y="102" width="2" height="2" rx="0.25" fill="#FB6514"/>
<rect x="165" y="116" width="2" height="2" rx="0.25" fill="#FB6514"/>
<rect x="165" y="130" width="2" height="2" rx="0.25" fill="#FB6514"/>
<rect x="165" y="32" width="2" height="2" rx="0.25" fill="#FB6514"/>
<rect x="165" y="46" width="2" height="2" rx="0.25" fill="#FB6514"/>
<rect x="165" y="60" width="2" height="2" rx="0.25" fill="#FB6514"/>
<rect x="165" y="74" width="2" height="2" rx="0.25" fill="#FB6514"/>
<rect x="165" y="88" width="2" height="2" rx="0.25" fill="#FB6514"/>
<rect x="165" y="102" width="2" height="2" rx="0.25" fill="#FB6514"/>
<rect x="179" y="116" width="2" height="2" rx="0.25" fill="#FB6514"/>
<rect x="179" y="130" width="2" height="2" rx="0.25" fill="#FB6514"/>
<rect x="179" y="32" width="2" height="2" rx="0.25" fill="#FB6514"/>
<rect x="179" y="46" width="2" height="2" rx="0.25" fill="#FB6514"/>
<rect x="179" y="60" width="2" height="2" rx="0.25" fill="#FB6514"/>
<rect x="179" y="74" width="2" height="2" rx="0.25" fill="#FB6514"/>
<rect x="179" y="88" width="2" height="2" rx="0.25" fill="#FB6514"/>
<rect x="179" y="102" width="2" height="2" rx="0.25" fill="#FB6514"/>
<rect x="193" y="116" width="2" height="2" rx="0.25" fill="#FB6514"/>
<rect x="193" y="130" width="2" height="2" rx="0.25" fill="#FB6514"/>
<rect x="193" y="32" width="2" height="2" rx="0.25" fill="#FB6514"/>
<rect x="193" y="46" width="2" height="2" rx="0.25" fill="#FB6514"/>
<rect x="193" y="60" width="2" height="2" rx="0.25" fill="#FB6514"/>
<rect x="193" y="74" width="2" height="2" rx="0.25" fill="#FB6514"/>
<rect x="193" y="88" width="2" height="2" rx="0.25" fill="#FB6514"/>
<rect x="193" y="102" width="2" height="2" rx="0.25" fill="#FB6514"/>
<rect x="207" y="46" width="2" height="2" rx="0.25" fill="#FB6514"/>
<rect x="221" y="46" width="2" height="2" rx="0.25" fill="#FB6514"/>
<rect x="207" y="32" width="2" height="2" rx="0.25" fill="#FB6514"/>
<rect x="215" y="32" width="14" height="2" rx="0.25" fill="#FB6514"/>
<rect x="221" y="26" width="2" height="14" rx="0.25" fill="#FB6514"/>
<rect x="215" y="130" width="14" height="2" rx="0.25" fill="#FB6514"/>
<rect x="221" y="124" width="2" height="14" rx="0.25" fill="#FB6514"/>
<rect x="207" y="60" width="2" height="2" rx="0.25" fill="#FB6514"/>
<rect x="221" y="60" width="2" height="2" rx="0.25" fill="#FB6514"/>
<rect x="207" y="74" width="2" height="2" rx="0.25" fill="#FB6514"/>
<rect x="221" y="74" width="2" height="2" rx="0.25" fill="#FB6514"/>
<rect x="207" y="88" width="2" height="2" rx="0.25" fill="#FB6514"/>
<rect x="221" y="88" width="2" height="2" rx="0.25" fill="#FB6514"/>
<rect x="207" y="102" width="2" height="2" rx="0.25" fill="#FB6514"/>
<rect x="221" y="102" width="2" height="2" rx="0.25" fill="#FB6514"/>
<rect x="207" y="116" width="2" height="2" rx="0.25" fill="#FB6514"/>
<rect x="207" y="130" width="2" height="2" rx="0.25" fill="#FB6514"/>
<rect x="221" y="116" width="2" height="2" rx="0.25" fill="#FB6514"/>
<rect x="19" y="32" width="14" height="2" rx="0.25" fill="#FB6514"/>
<rect x="25" y="26" width="2" height="14" rx="0.25" fill="#FB6514"/>
<rect x="11" y="18" width="2" height="2" rx="0.25" fill="#FB6514"/>
<rect x="11" y="32" width="2" height="2" rx="0.25" fill="#FB6514"/>
<rect x="25" y="18" width="2" height="2" rx="0.25" fill="#FB6514"/>
<rect x="123" y="18" width="2" height="2" rx="0.25" fill="#FB6514"/>
<rect x="117" y="32" width="14" height="2" rx="0.25" fill="#FB6514"/>
<rect x="123" y="26" width="2" height="14" rx="0.25" fill="#FB6514"/>
<rect x="137" y="18" width="2" height="2" rx="0.25" fill="#FB6514"/>
<rect x="137" y="32" width="2" height="2" rx="0.25" fill="#FB6514"/>
<rect x="151" y="18" width="2" height="2" rx="0.25" fill="#FB6514"/>
<rect x="151" y="32" width="2" height="2" rx="0.25" fill="#FB6514"/>
<rect x="165" y="18" width="2" height="2" rx="0.25" fill="#FB6514"/>
<rect x="165" y="32" width="2" height="2" rx="0.25" fill="#FB6514"/>
<rect x="179" y="18" width="2" height="2" rx="0.25" fill="#FB6514"/>
<rect x="179" y="32" width="2" height="2" rx="0.25" fill="#FB6514"/>
<rect x="193" y="18" width="2" height="2" rx="0.25" fill="#FB6514"/>
<rect x="193" y="32" width="2" height="2" rx="0.25" fill="#FB6514"/>
<rect x="215" y="32" width="14" height="2" rx="0.25" fill="#FB6514"/>
<rect x="221" y="26" width="2" height="14" rx="0.25" fill="#FB6514"/>
<rect x="207" y="18" width="2" height="2" rx="0.25" fill="#FB6514"/>
<rect x="207" y="32" width="2" height="2" rx="0.25" fill="#FB6514"/>
<rect x="221" y="18" width="2" height="2" rx="0.25" fill="#FB6514"/>
</g>
<path opacity="0.2" d="M170 114.852L124 141.944L78 114.852L124 87.7674L170 114.852Z" fill="black"/>
<path d="M124 131.736V130.406L122.862 129.736L168.869 102.644L170 103.313L169.993 104.644L124 131.736Z" fill="#F6F8FA"/>
<path d="M124 131.736L78 104.644V103.313L79.1386 102.644L125.139 129.736L124 130.406V131.736Z" fill="#F6F8FA"/>
<path d="M125.139 129.736L124 130.406L122.862 129.736V133.583L124 134.252L125.139 133.583V129.736Z" fill="#F6F8FA"/>
<path d="M124 134.252V130.406L78 103.313V107.183L124 134.252Z" fill="#ECF1F5"/>
<path d="M170 103.313V107.16L124 134.252V130.406L170 103.313Z" fill="#DAE1E7"/>
<path d="M170 103.313L124 130.406L78 103.313L124 76.2288L170 103.313Z" fill="#F6F8FA"/>
<path d="M84.606 102.836C84.4407 102.752 84.2587 102.709 84.0743 102.709C83.8899 102.709 83.708 102.752 83.5427 102.836C83.477 102.857 83.4196 102.899 83.3789 102.955C83.3381 103.012 83.3162 103.081 83.3162 103.151C83.3162 103.221 83.3381 103.29 83.3789 103.346C83.4196 103.403 83.477 103.445 83.5427 103.466C83.7083 103.553 83.8918 103.599 84.0781 103.599C84.2644 103.599 84.4479 103.553 84.6135 103.466C84.6792 103.445 84.7366 103.403 84.7773 103.346C84.8181 103.29 84.84 103.221 84.84 103.151C84.84 103.081 84.8181 103.012 84.7773 102.955C84.7366 102.899 84.6792 102.857 84.6135 102.836" fill="#DAE1E7"/>
<path d="M92.6071 98.1357C92.4423 98.0506 92.2602 98.0062 92.0754 98.0062C91.8907 98.0062 91.7086 98.0506 91.5438 98.1357C91.2497 98.3127 91.2497 98.5896 91.5438 98.7665C91.7081 98.8535 91.8904 98.8989 92.0754 98.8989C92.2605 98.8989 92.4429 98.8535 92.6071 98.7665C92.9012 98.5973 92.8937 98.3127 92.6071 98.1357Z" fill="#DAE1E7"/>
<path d="M100.608 93.4356C100.442 93.3503 100.258 93.3059 100.072 93.3059C99.8866 93.3059 99.7032 93.3503 99.5371 93.4356C99.243 93.6048 99.2505 93.8894 99.5371 94.0586C99.7019 94.1438 99.884 94.1882 100.069 94.1882C100.253 94.1882 100.436 94.1438 100.6 94.0586C100.665 94.0354 100.721 93.9922 100.761 93.935C100.801 93.8778 100.822 93.8095 100.822 93.7394C100.822 93.6693 100.801 93.601 100.761 93.5438C100.721 93.4867 100.665 93.4435 100.6 93.4202" fill="#DAE1E7"/>
<path d="M108.601 88.7434C108.436 88.6563 108.252 88.6109 108.066 88.6109C107.88 88.6109 107.696 88.6563 107.531 88.7434C107.244 88.9126 107.244 89.1972 107.531 89.3741C107.696 89.4576 107.878 89.5009 108.062 89.5009C108.247 89.5009 108.429 89.4576 108.594 89.3741C108.66 89.353 108.717 89.311 108.758 89.2542C108.798 89.1975 108.82 89.1291 108.82 89.0588C108.82 88.9885 108.798 88.92 108.758 88.8633C108.717 88.8066 108.66 88.7646 108.594 88.7434" fill="#DAE1E7"/>
<path d="M116.61 84.0822C116.444 83.9951 116.261 83.9497 116.075 83.9497C115.888 83.9497 115.705 83.9951 115.539 84.0822C115.245 84.2514 115.245 84.536 115.539 84.7129C115.704 84.7964 115.886 84.8397 116.071 84.8397C116.255 84.8397 116.437 84.7964 116.602 84.7129C116.668 84.6918 116.726 84.6498 116.766 84.593C116.807 84.5363 116.829 84.4679 116.829 84.3976C116.829 84.3273 116.807 84.2588 116.766 84.2021C116.726 84.1454 116.668 84.1034 116.602 84.0822" fill="#DAE1E7"/>
<path d="M124.603 79.3435C124.439 79.2565 124.257 79.2111 124.072 79.2111C123.887 79.2111 123.704 79.2565 123.54 79.3435C123.238 79.5204 123.246 79.7974 123.54 79.9743C123.705 80.0577 123.887 80.1011 124.072 80.1011C124.256 80.1011 124.438 80.0577 124.603 79.9743C124.897 79.7974 124.905 79.5204 124.603 79.3435Z" fill="#DAE1E7"/>
<path d="M92.5842 107.536C92.4176 107.452 92.2344 107.409 92.0488 107.409C91.8632 107.409 91.68 107.452 91.5134 107.536C91.4477 107.557 91.3903 107.599 91.3496 107.656C91.3088 107.713 91.2869 107.781 91.2869 107.851C91.2869 107.922 91.3088 107.99 91.3496 108.047C91.3903 108.104 91.4477 108.146 91.5134 108.167C91.6776 108.254 91.86 108.299 92.045 108.299C92.2301 108.299 92.4124 108.254 92.5767 108.167C92.8783 107.99 92.8708 107.713 92.5767 107.536" fill="#DAE1E7"/>
<path d="M100.578 102.836C100.413 102.752 100.231 102.709 100.046 102.709C99.8618 102.709 99.6799 102.752 99.5146 102.836C99.4489 102.857 99.3915 102.899 99.3508 102.955C99.31 103.012 99.2881 103.081 99.2881 103.151C99.2881 103.221 99.31 103.29 99.3508 103.346C99.3915 103.403 99.4489 103.445 99.5146 103.466C99.6802 103.553 99.8637 103.599 100.05 103.599C100.236 103.599 100.42 103.553 100.585 103.466C100.88 103.297 100.88 103.012 100.585 102.836" fill="#DAE1E7"/>
<path d="M108.601 98.136C108.436 98.0526 108.254 98.0092 108.07 98.0092C107.885 98.0092 107.703 98.0526 107.538 98.136C107.472 98.1572 107.415 98.1992 107.374 98.2559C107.333 98.3126 107.312 98.3811 107.312 98.4514C107.312 98.5217 107.333 98.5902 107.374 98.6469C107.415 98.7036 107.472 98.7456 107.538 98.7668C107.704 98.8538 107.887 98.8992 108.073 98.8992C108.26 98.8992 108.443 98.8538 108.609 98.7668C108.895 98.5975 108.895 98.3129 108.609 98.136" fill="#DAE1E7"/>
<path d="M116.58 93.4355C116.415 93.3503 116.233 93.3059 116.048 93.3059C115.863 93.3059 115.681 93.3503 115.517 93.4355C115.451 93.4567 115.393 93.4987 115.353 93.5554C115.312 93.6121 115.29 93.6806 115.29 93.7509C115.29 93.8212 115.312 93.8896 115.353 93.9463C115.393 94.003 115.451 94.045 115.517 94.0662C115.682 94.1496 115.864 94.193 116.048 94.193C116.233 94.193 116.415 94.1496 116.58 94.0662C116.881 93.8893 116.874 93.6047 116.58 93.4278" fill="#DAE1E7"/>
<path d="M124.573 88.7433C124.409 88.6563 124.227 88.6109 124.042 88.6109C123.857 88.6109 123.674 88.6563 123.51 88.7433C123.216 88.9125 123.223 89.1972 123.51 89.3741C123.675 89.4592 123.857 89.5036 124.042 89.5036C124.226 89.5036 124.408 89.4592 124.573 89.3741C124.867 89.1972 124.867 88.9202 124.573 88.7433Z" fill="#DAE1E7"/>
<path d="M132.574 84.0821C132.41 83.9951 132.228 83.9497 132.043 83.9497C131.858 83.9497 131.675 83.9951 131.511 84.0821C131.217 84.2513 131.217 84.536 131.511 84.7129C131.676 84.7963 131.858 84.8397 132.043 84.8397C132.227 84.8397 132.409 84.7963 132.574 84.7129C132.64 84.6917 132.697 84.6497 132.738 84.593C132.779 84.5363 132.801 84.4678 132.801 84.3975C132.801 84.3272 132.779 84.2587 132.738 84.202C132.697 84.1453 132.64 84.1033 132.574 84.0821Z" fill="#DAE1E7"/>
<path d="M100.555 112.236C100.39 112.149 100.206 112.103 100.02 112.103C99.8335 112.103 99.6499 112.149 99.4843 112.236C99.4186 112.257 99.3612 112.299 99.3205 112.356C99.2798 112.412 99.2578 112.481 99.2578 112.551C99.2578 112.621 99.2798 112.69 99.3205 112.747C99.3612 112.803 99.4186 112.845 99.4843 112.866C99.6499 112.953 99.8335 112.999 100.02 112.999C100.206 112.999 100.39 112.953 100.555 112.866C100.857 112.69 100.849 112.413 100.555 112.236Z" fill="#DAE1E7"/>
<path d="M108.549 107.536C108.383 107.452 108.201 107.409 108.017 107.409C107.833 107.409 107.651 107.452 107.485 107.536C107.42 107.557 107.362 107.599 107.321 107.656C107.281 107.712 107.259 107.781 107.259 107.851C107.259 107.921 107.281 107.99 107.321 108.047C107.362 108.103 107.42 108.145 107.485 108.167C107.65 108.254 107.832 108.299 108.017 108.299C108.202 108.299 108.384 108.254 108.549 108.167C108.843 107.99 108.835 107.713 108.549 107.536Z" fill="#DAE1E7"/>
<path d="M116.557 102.836C116.39 102.752 116.207 102.709 116.022 102.709C115.836 102.709 115.653 102.752 115.486 102.836C115.421 102.857 115.363 102.899 115.322 102.956C115.282 103.012 115.26 103.081 115.26 103.151C115.26 103.221 115.282 103.29 115.322 103.347C115.363 103.403 115.421 103.445 115.486 103.466C115.651 103.553 115.833 103.599 116.018 103.599C116.203 103.599 116.385 103.553 116.55 103.466C116.615 103.445 116.673 103.403 116.713 103.347C116.754 103.29 116.776 103.221 116.776 103.151C116.776 103.081 116.754 103.012 116.713 102.956C116.673 102.899 116.615 102.857 116.55 102.836" fill="#DAE1E7"/>
<path d="M124.551 98.1354C124.384 98.0519 124.201 98.0085 124.015 98.0085C123.829 98.0085 123.646 98.0519 123.48 98.1354C123.414 98.1566 123.357 98.1986 123.316 98.2553C123.275 98.312 123.253 98.3805 123.253 98.4508C123.253 98.5211 123.275 98.5895 123.316 98.6463C123.357 98.703 123.414 98.745 123.48 98.7662C123.644 98.8531 123.826 98.8985 124.011 98.8985C124.196 98.8985 124.379 98.8531 124.543 98.7662C124.609 98.745 124.666 98.703 124.707 98.6463C124.748 98.5895 124.769 98.5211 124.769 98.4508C124.769 98.3805 124.748 98.312 124.707 98.2553C124.666 98.1986 124.609 98.1566 124.543 98.1354" fill="#DAE1E7"/>
<path d="M132.552 93.4357C132.386 93.3523 132.204 93.3089 132.02 93.3089C131.836 93.3089 131.654 93.3523 131.488 93.4357C131.194 93.6127 131.187 93.8973 131.488 94.0742C131.654 94.1594 131.838 94.2038 132.024 94.2038C132.21 94.2038 132.393 94.1594 132.559 94.0742C132.846 93.905 132.846 93.6204 132.559 93.4434" fill="#DAE1E7"/>
<path d="M140.545 88.7433C140.381 88.6563 140.198 88.6109 140.013 88.6109C139.828 88.6109 139.646 88.6563 139.482 88.7433C139.416 88.7645 139.359 88.8065 139.318 88.8632C139.277 88.9199 139.255 88.9884 139.255 89.0587C139.255 89.129 139.277 89.1975 139.318 89.2542C139.359 89.3109 139.416 89.3529 139.482 89.3741C139.648 89.4576 139.831 89.501 140.017 89.501C140.203 89.501 140.386 89.4576 140.552 89.3741C140.854 89.1972 140.847 88.9202 140.552 88.7433" fill="#DAE1E7"/>
<path d="M108.526 116.936C108.362 116.849 108.179 116.804 107.994 116.804C107.809 116.804 107.627 116.849 107.463 116.936C107.161 117.113 107.169 117.39 107.463 117.567C107.628 117.65 107.81 117.693 107.994 117.693C108.179 117.693 108.361 117.65 108.526 117.567C108.592 117.546 108.649 117.504 108.69 117.447C108.731 117.39 108.752 117.322 108.752 117.251C108.752 117.181 108.731 117.113 108.69 117.056C108.649 116.999 108.592 116.957 108.526 116.936" fill="#DAE1E7"/>
<path d="M116.527 112.236C116.363 112.149 116.18 112.103 115.995 112.103C115.81 112.103 115.628 112.149 115.464 112.236C115.17 112.413 115.162 112.689 115.464 112.866C115.629 112.953 115.813 112.999 115.999 112.999C116.185 112.999 116.369 112.953 116.534 112.866C116.597 112.842 116.65 112.798 116.688 112.742C116.726 112.686 116.746 112.619 116.746 112.551C116.746 112.483 116.726 112.416 116.688 112.36C116.65 112.304 116.597 112.26 116.534 112.236" fill="#DAE1E7"/>
<path d="M124.521 107.536C124.355 107.452 124.173 107.409 123.989 107.409C123.804 107.409 123.623 107.452 123.457 107.536C123.392 107.557 123.334 107.599 123.293 107.656C123.253 107.712 123.231 107.781 123.231 107.851C123.231 107.921 123.253 107.99 123.293 108.047C123.334 108.103 123.392 108.145 123.457 108.167C123.623 108.254 123.806 108.299 123.993 108.299C124.179 108.299 124.362 108.254 124.528 108.167C124.822 107.99 124.822 107.713 124.528 107.536" fill="#DAE1E7"/>
<path d="M132.521 102.836C132.356 102.752 132.174 102.709 131.99 102.709C131.805 102.709 131.623 102.752 131.458 102.836C131.392 102.857 131.335 102.899 131.294 102.955C131.254 103.012 131.232 103.081 131.232 103.151C131.232 103.221 131.254 103.29 131.294 103.346C131.335 103.403 131.392 103.445 131.458 103.466C131.624 103.553 131.807 103.599 131.994 103.599C132.18 103.599 132.363 103.553 132.529 103.466C132.816 103.297 132.816 103.012 132.529 102.836" fill="#DAE1E7"/>
<path d="M140.522 98.1354C140.356 98.0519 140.172 98.0085 139.987 98.0085C139.801 98.0085 139.618 98.0519 139.451 98.1354C139.157 98.3123 139.165 98.5892 139.451 98.7662C139.617 98.8532 139.801 98.8986 139.987 98.8986C140.173 98.8986 140.357 98.8532 140.522 98.7662C140.809 98.5969 140.809 98.3123 140.522 98.1354Z" fill="#DAE1E7"/>
<path d="M148.523 93.4359C148.357 93.3524 148.174 93.3089 147.988 93.3089C147.802 93.3089 147.619 93.3524 147.453 93.4359C147.387 93.4571 147.329 93.4991 147.289 93.5558C147.248 93.6125 147.226 93.681 147.226 93.7513C147.226 93.8216 147.248 93.89 147.289 93.9467C147.329 94.0034 147.387 94.0454 147.453 94.0666C147.617 94.1536 147.799 94.199 147.984 94.199C148.169 94.199 148.352 94.1536 148.516 94.0666C148.582 94.0454 148.639 94.0034 148.68 93.9467C148.72 93.89 148.742 93.8216 148.742 93.7513C148.742 93.681 148.72 93.6125 148.68 93.5558C148.639 93.4991 148.582 93.4571 148.516 93.4359" fill="#DAE1E7"/>
<path d="M116.497 121.635C116.333 121.548 116.15 121.503 115.965 121.503C115.78 121.503 115.598 121.548 115.433 121.635C115.139 121.805 115.139 122.089 115.433 122.266C115.599 122.35 115.781 122.393 115.965 122.393C116.15 122.393 116.331 122.35 116.497 122.266C116.562 122.245 116.62 122.203 116.661 122.146C116.701 122.09 116.723 122.021 116.723 121.951C116.723 121.881 116.701 121.812 116.661 121.755C116.62 121.699 116.562 121.657 116.497 121.635" fill="#DAE1E7"/>
<path d="M124.498 116.936C124.332 116.849 124.148 116.804 123.962 116.804C123.776 116.804 123.592 116.849 123.427 116.936C123.133 117.113 123.14 117.39 123.427 117.567C123.592 117.65 123.774 117.694 123.958 117.694C124.143 117.694 124.325 117.65 124.49 117.567C124.556 117.546 124.613 117.504 124.654 117.447C124.695 117.39 124.717 117.322 124.717 117.251C124.717 117.181 124.695 117.113 124.654 117.056C124.613 116.999 124.556 116.957 124.49 116.936" fill="#DAE1E7"/>
<path d="M132.499 112.236C132.333 112.149 132.15 112.103 131.963 112.103C131.777 112.103 131.594 112.149 131.428 112.236C131.134 112.413 131.141 112.69 131.428 112.866C131.593 112.95 131.775 112.993 131.96 112.993C132.144 112.993 132.326 112.95 132.491 112.866C132.557 112.845 132.614 112.803 132.655 112.747C132.696 112.69 132.718 112.621 132.718 112.551C132.718 112.481 132.696 112.412 132.655 112.356C132.614 112.299 132.557 112.257 132.491 112.236" fill="#DAE1E7"/>
<path d="M140.492 107.536C140.327 107.45 140.145 107.406 139.961 107.406C139.776 107.406 139.594 107.45 139.429 107.536C139.363 107.557 139.306 107.599 139.265 107.655C139.224 107.712 139.202 107.781 139.202 107.851C139.202 107.921 139.224 107.99 139.265 108.046C139.306 108.103 139.363 108.145 139.429 108.166C139.595 108.253 139.778 108.299 139.964 108.299C140.151 108.299 140.334 108.253 140.5 108.166C140.794 107.997 140.794 107.712 140.5 107.536" fill="#DAE1E7"/>
<path d="M148.493 102.836C148.328 102.752 148.146 102.709 147.962 102.709C147.777 102.709 147.595 102.752 147.43 102.836C147.364 102.857 147.307 102.899 147.266 102.955C147.225 103.012 147.203 103.081 147.203 103.151C147.203 103.221 147.225 103.29 147.266 103.346C147.307 103.403 147.364 103.445 147.43 103.466C147.594 103.553 147.776 103.599 147.962 103.599C148.147 103.599 148.329 103.553 148.493 103.466C148.795 103.289 148.787 103.012 148.493 102.836Z" fill="#DAE1E7"/>
<path d="M156.494 98.1357C156.329 98.0506 156.147 98.0062 155.962 98.0062C155.778 98.0062 155.596 98.0506 155.431 98.1357C155.365 98.1569 155.308 98.1989 155.267 98.2556C155.226 98.3124 155.204 98.3808 155.204 98.4511C155.204 98.5214 155.226 98.5899 155.267 98.6466C155.308 98.7033 155.365 98.7453 155.431 98.7665C155.596 98.8535 155.78 98.899 155.966 98.899C156.153 98.899 156.336 98.8535 156.502 98.7665C156.788 98.5973 156.788 98.3127 156.502 98.1357" fill="#DAE1E7"/>
<path d="M124.438 126.336C124.273 126.249 124.091 126.203 123.906 126.203C123.721 126.203 123.538 126.249 123.374 126.336C123.309 126.357 123.251 126.399 123.21 126.456C123.17 126.512 123.148 126.581 123.148 126.651C123.148 126.721 123.17 126.79 123.21 126.847C123.251 126.903 123.309 126.945 123.374 126.966C123.539 127.052 123.721 127.096 123.906 127.096C124.091 127.096 124.273 127.052 124.438 126.966C124.739 126.79 124.739 126.513 124.438 126.336Z" fill="#DAE1E7"/>
<path d="M132.469 121.635C132.305 121.548 132.122 121.503 131.937 121.503C131.752 121.503 131.57 121.548 131.405 121.635C131.34 121.657 131.282 121.699 131.242 121.755C131.201 121.812 131.179 121.881 131.179 121.951C131.179 122.021 131.201 122.09 131.242 122.146C131.282 122.203 131.34 122.245 131.405 122.266C131.572 122.35 131.755 122.393 131.941 122.393C132.127 122.393 132.31 122.35 132.476 122.266C132.542 122.245 132.599 122.203 132.64 122.146C132.681 122.09 132.703 122.021 132.703 121.951C132.703 121.881 132.681 121.812 132.64 121.755C132.599 121.699 132.542 121.657 132.476 121.635" fill="#DAE1E7"/>
<path d="M140.469 116.936C140.304 116.849 140.12 116.804 139.934 116.804C139.748 116.804 139.564 116.849 139.399 116.936C139.105 117.105 139.112 117.39 139.399 117.567C139.564 117.65 139.746 117.694 139.93 117.694C140.115 117.694 140.297 117.65 140.462 117.567C140.528 117.546 140.585 117.504 140.626 117.447C140.666 117.39 140.688 117.322 140.688 117.251C140.688 117.181 140.666 117.113 140.626 117.056C140.585 116.999 140.528 116.957 140.462 116.936" fill="#DAE1E7"/>
<path d="M148.463 112.236C148.299 112.149 148.116 112.103 147.931 112.103C147.746 112.103 147.564 112.149 147.4 112.236C147.106 112.413 147.113 112.689 147.4 112.866C147.565 112.95 147.747 112.993 147.931 112.993C148.116 112.993 148.298 112.95 148.463 112.866C148.529 112.845 148.586 112.803 148.627 112.747C148.667 112.69 148.689 112.621 148.689 112.551C148.689 112.481 148.667 112.412 148.627 112.356C148.586 112.299 148.529 112.257 148.463 112.236Z" fill="#DAE1E7"/>
<path d="M156.472 107.535C156.306 107.448 156.123 107.403 155.936 107.403C155.75 107.403 155.566 107.448 155.401 107.535C155.335 107.557 155.278 107.599 155.237 107.655C155.196 107.712 155.174 107.781 155.174 107.851C155.174 107.921 155.196 107.99 155.237 108.046C155.278 108.103 155.335 108.145 155.401 108.166C155.566 108.253 155.75 108.299 155.936 108.299C156.123 108.299 156.306 108.253 156.472 108.166C156.537 108.145 156.595 108.103 156.635 108.046C156.676 107.99 156.698 107.921 156.698 107.851C156.698 107.781 156.676 107.712 156.635 107.655C156.595 107.599 156.537 107.557 156.472 107.535Z" fill="#DAE1E7"/>
<path d="M164.465 102.836C164.298 102.752 164.115 102.709 163.929 102.709C163.744 102.709 163.561 102.752 163.394 102.836C163.332 102.86 163.278 102.904 163.241 102.96C163.203 103.016 163.183 103.083 163.183 103.151C163.183 103.219 163.203 103.286 163.241 103.342C163.278 103.398 163.332 103.442 163.394 103.466C163.558 103.553 163.741 103.599 163.926 103.599C164.111 103.599 164.293 103.553 164.457 103.466C164.523 103.445 164.58 103.403 164.621 103.347C164.662 103.29 164.684 103.221 164.684 103.151C164.684 103.081 164.662 103.012 164.621 102.956C164.58 102.899 164.523 102.857 164.457 102.836" fill="#DAE1E7"/>
<path d="M124.007 76.22V22.0431L170 49.1354V103.312L124.007 76.22Z" fill="url(#paint0_linear_331_33898)"/>
<path d="M124.008 76.22V22.0431L78.0151 49.1354V103.312L124.008 76.22Z" fill="url(#paint1_linear_331_33898)"/>
<path d="M103.564 96.7371V95.1448L104.763 94.4371L91.8904 86.5368L90.4199 87.4064V89.2064L103.564 96.7371Z" fill="#EC4A0A"/>
<path d="M103.564 96.7376V95.1453L102.282 94.3915L115.411 86.645L116.708 87.4068V88.9915L103.564 96.7376Z" fill="#EC4A0A"/>
<path d="M104.763 94.4375L103.564 95.1452L102.282 94.3914V109.868L103.564 110.622L104.763 109.914V94.4375Z" fill="#EC4A0A"/>
<path d="M103.564 110.622V95.1452L116.708 87.4067L116.7 102.884L103.564 110.622Z" fill="url(#paint2_linear_331_33898)"/>
<path d="M90.4199 87.4067V102.884L103.564 110.622V95.1452L90.4199 87.4067Z" fill="url(#paint3_linear_331_33898)"/>
<path d="M116.708 87.4063L103.564 79.6678L90.4199 87.4063L103.564 95.1448L116.708 87.4063Z" fill="url(#paint4_linear_331_33898)"/>
<path d="M123.645 65.9904V64.3981L124.844 63.6904L111.972 55.7901L110.501 56.6597V58.4597L123.645 65.9904Z" fill="#F6F8FA"/>
<path d="M123.645 65.9909V64.3986L122.364 63.6448L135.492 55.8983L136.789 56.6601V58.2448L123.645 65.9909Z" fill="#F6F8FA"/>
<path d="M124.844 63.6909L123.645 64.3985L122.364 63.6447V79.1215L123.645 79.8755L124.844 79.1676V63.6909Z" fill="#F6F8FA"/>
<path d="M123.646 79.8754V64.3985L136.789 56.66L136.782 72.1369L123.646 79.8754Z" fill="#DAE1E7"/>
<path d="M110.501 56.66V72.1369L123.645 79.8754V64.3985L110.501 56.66Z" fill="#ECF1F5"/>
<path d="M136.789 56.6596L123.645 48.9211L110.501 56.6596L123.645 64.3981L136.789 56.6596Z" fill="#F6F8FA"/>
<path d="M143.719 77.8818V76.2203L145.024 75.4511L131.782 67.72L130.538 68.4511V70.1893L143.719 77.8818Z" fill="#F6F8FA"/>
<path d="M143.72 77.8825V76.221L142.385 75.4364L155.589 67.6824L156.901 68.4593V70.1902L143.72 77.8825Z" fill="#F6F8FA"/>
<path d="M145.024 75.4515L143.72 76.2202L142.385 75.4356V110.267L143.72 111.051L145.024 110.282V75.4515Z" fill="#F6F8FA"/>
<path d="M143.719 111.051V76.2207L156.901 68.4592V103.313L143.719 111.051Z" fill="#DAE1E7"/>
<path d="M130.538 68.4516V103.313L143.719 111.052V76.2209L130.538 68.4516Z" fill="#ECF1F5"/>
<path d="M156.901 68.4595L143.712 60.6902L130.538 68.4518L143.719 76.221L156.901 68.4595Z" fill="#F6F8FA"/>
<path d="M103.564 77.8211V76.2288L104.763 75.5211L91.8904 67.6208L90.4199 68.4903V70.2903L103.564 77.8211Z" fill="#F6F8FA"/>
<path d="M103.564 77.8216V76.2293L102.282 75.4754L115.411 67.729L116.708 68.4908V70.0754L103.564 77.8216Z" fill="#F6F8FA"/>
<path d="M104.763 75.5215L103.564 76.2292L102.282 75.4754V90.9522L103.564 91.7061L104.763 90.9983V75.5215Z" fill="#F6F8FA"/>
<path d="M103.564 91.7061V76.2292L116.708 68.4907L116.7 83.9676L103.564 91.7061Z" fill="#DAE1E7"/>
<path d="M90.4199 68.4907V83.9676L103.564 91.7061V76.2292L90.4199 68.4907Z" fill="#ECF1F5"/>
<path d="M116.708 68.4903L103.564 60.7518L90.4199 68.4903L103.564 76.2287L116.708 68.4903Z" fill="#F6F8FA"/>
<path d="M124.007 108.775V107.183L125.207 106.475L112.334 98.5748L110.864 99.4444V101.244L124.007 108.775Z" fill="#F6F8FA"/>
<path d="M124.008 108.776V107.183L122.726 106.429L135.854 98.683L137.151 99.4448V101.029L124.008 108.776Z" fill="#F6F8FA"/>
<path d="M125.207 106.476L124.008 107.183L122.726 106.429V121.906L124.008 122.66L125.207 121.952V106.476Z" fill="#F6F8FA"/>
<path d="M124.008 122.66V107.183L137.151 99.4447L137.144 114.922L124.008 122.66Z" fill="#DAE1E7"/>
<path d="M110.864 99.4447V114.922L124.007 122.66V107.183L110.864 99.4447Z" fill="#ECF1F5"/>
<path d="M137.151 99.4443L124.007 91.7058L110.864 99.4443L124.007 107.183L137.151 99.4443Z" fill="#F6F8FA"/>
<path opacity="0.6" d="M137.144 94.8202L130.953 98.474L124.761 94.8202L130.953 91.1741L137.144 94.8202Z" fill="url(#paint5_linear_331_33898)"/>
<path d="M137.144 87.5202V94.8202L130.953 98.474V91.1741L137.144 87.5202Z" fill="url(#paint6_linear_331_33898)"/>
<path d="M130.953 83.8739V91.1739L124.761 94.82V87.52L130.953 83.8739Z" fill="url(#paint7_linear_331_33898)"/>
<path d="M130.953 91.1741V98.474L124.761 94.8202V87.5202L130.953 91.1741Z" fill="url(#paint8_linear_331_33898)"/>
<path d="M137.144 87.52V94.82L130.953 91.1739V83.8739L137.144 87.52Z" fill="url(#paint9_linear_331_33898)"/>
<path opacity="0.6" d="M137.144 87.52L130.953 91.1739L124.761 87.52L130.953 83.8739L137.144 87.52Z" fill="url(#paint10_linear_331_33898)"/>
<path d="M124 96.9043V95.2662L122.795 94.5585L128.932 90.8818L130.191 91.6201V93.0652L124 96.9043Z" fill="#F6F8FA"/>
<path d="M124 96.9046V95.266L125.311 94.4968L111.971 86.8742L110.864 87.5276V89.0383L124 96.9046Z" fill="#F6F8FA"/>
<path d="M125.311 94.4974L124 95.2664L122.795 94.559V101.859L124 102.566L125.31 101.797L125.311 94.4974Z" fill="#F6F8FA"/>
<path d="M130.191 91.6203V98.9202L124 102.566V95.2664L130.191 91.6203Z" fill="#DAE1E7"/>
<path d="M124 95.2663V102.566L110.864 94.8279V87.5277L124 95.2663Z" fill="#ECF1F5"/>
<path d="M130.191 91.62L124 95.2662L110.864 87.5277L117.055 83.8739L130.191 91.62Z" fill="#F6F8FA"/>
<path d="M124 80.6356V78.9009L122.719 78.1467L128.865 74.4681L130.191 75.2472V76.7966L124 80.6356Z" fill="#FB6514"/>
<path d="M124 80.636V78.9013L125.235 78.1782L119.059 74.5154L117.809 75.2477V76.797L124 80.636Z" fill="#FB6514"/>
<path d="M125.235 78.1785L124 78.9017L122.719 78.1475V85.4437L124 86.1976L125.235 85.4745L125.235 78.1785Z" fill="#FB6514"/>
<path d="M130.191 75.2531L124 78.9009L117.809 75.2531L124 71.6052L130.191 75.2531Z" fill="url(#paint11_linear_331_33898)"/>
<path d="M130.191 75.2538V82.5649L124 86.1974V78.9017L130.191 75.2538Z" fill="url(#paint12_linear_331_33898)"/>
<path d="M124 78.9017V86.1974L117.809 82.5495V75.2538L124 78.9017Z" fill="url(#paint13_linear_331_33898)"/>
<path d="M130.953 84.7199V82.9852L129.672 82.231L135.818 78.5524L137.144 79.3315V80.8809L130.953 84.7199Z" fill="#F6F8FA"/>
<path d="M130.953 84.7203V82.9856L132.188 82.2625L126.012 78.5997L124.762 79.3319V80.8813L130.953 84.7203Z" fill="#F6F8FA"/>
<path d="M132.188 82.2628L130.953 82.986L129.672 82.2317V89.528L130.953 90.2819L132.188 89.5588L132.188 82.2628Z" fill="#F6F8FA"/>
<path d="M137.144 79.3374L130.953 82.9852L124.761 79.3374L130.953 75.6895L137.144 79.3374Z" fill="#F6F8FA"/>
<path d="M137.144 79.3381V86.6492L130.953 90.2816V82.986L137.144 79.3381Z" fill="#DAE1E7"/>
<path d="M130.953 82.986V90.2816L124.761 86.6338V79.3381L130.953 82.986Z" fill="#ECF1F5"/>
<path d="M117.054 84.7274V82.9927L115.774 82.2385L121.92 78.5599L123.245 79.339V80.8884L117.054 84.7274Z" fill="#F6F8FA"/>
<path d="M117.054 84.7278V82.9931L118.29 82.27L112.114 78.6072L110.863 79.3395V80.8888L117.054 84.7278Z" fill="#F6F8FA"/>
<path d="M118.29 82.2703L117.055 82.9935L115.774 82.2393V89.5355L117.055 90.2894L118.29 89.5663L118.29 82.2703Z" fill="#F6F8FA"/>
<path d="M123.246 79.3449L117.055 82.9927L110.864 79.3449L117.055 75.697L123.246 79.3449Z" fill="#F6F8FA"/>
<path d="M123.246 79.3456V86.6567L117.055 90.2891V82.9935L123.246 79.3456Z" fill="#DAE1E7"/>
<path d="M117.055 82.9935V90.2891L110.864 86.6413V79.3456L117.055 82.9935Z" fill="#ECF1F5"/>
<path d="M123.992 87.9418V87.0748L123.351 86.6979L126.428 84.8595L127.092 85.2488V86.0232L123.992 87.9418Z" fill="#FB6514"/>
<path d="M123.993 87.9416V87.0747L124.611 86.7133L121.519 84.8827L120.893 85.2487V86.023L123.993 87.9416Z" fill="#FB6514"/>
<path d="M124.611 86.7132L123.993 87.0746L123.352 86.6976V90.3441L123.993 90.7208L124.611 90.3595L124.611 86.7132Z" fill="#FB6514"/>
<path d="M127.092 85.2515L123.992 87.0746L120.893 85.2515L123.992 83.4284L127.092 85.2515Z" fill="url(#paint14_linear_331_33898)"/>
<path d="M127.092 85.2516V88.9054L123.992 90.7208V87.0747L127.092 85.2516Z" fill="url(#paint15_linear_331_33898)"/>
<path d="M123.992 87.0747V90.7208L120.893 88.8977V85.2516L123.992 87.0747Z" fill="url(#paint16_linear_331_33898)"/>
<path d="M170 103.313V49.1359L124.007 76.2282V130.397L170 103.313Z" fill="url(#paint17_linear_331_33898)"/>
<path d="M78.0073 103.313V49.1359L124.007 76.2205V130.397L78.0073 103.313Z" fill="url(#paint18_linear_331_33898)"/>
<defs>
<linearGradient id="paint0_linear_331_33898" x1="146.99" y1="22.0431" x2="146.99" y2="103.312" gradientUnits="userSpaceOnUse">
<stop offset="0.3" stop-color="#ECF1F5" stop-opacity="0"/>
<stop offset="1" stop-color="#DAE1E7" stop-opacity="0.4"/>
</linearGradient>
<linearGradient id="paint1_linear_331_33898" x1="100.998" y1="22.0431" x2="100.998" y2="103.312" gradientUnits="userSpaceOnUse">
<stop offset="0.3" stop-color="#ECF1F5" stop-opacity="0"/>
<stop offset="1" stop-color="#DAE1E7" stop-opacity="0.4"/>
</linearGradient>
<linearGradient id="paint2_linear_331_33898" x1="103.564" y1="99.0087" x2="116.708" y2="99.0087" gradientUnits="userSpaceOnUse">
<stop stop-color="#FD853A"/>
<stop offset="1" stop-color="#EC4A0A"/>
</linearGradient>
<linearGradient id="paint3_linear_331_33898" x1="90.4199" y1="99.0087" x2="103.564" y2="99.0087" gradientUnits="userSpaceOnUse">
<stop stop-color="#FD853A"/>
<stop offset="1" stop-color="#EC4A0A"/>
</linearGradient>
<linearGradient id="paint4_linear_331_33898" x1="90.4199" y1="87.4025" x2="116.708" y2="87.4025" gradientUnits="userSpaceOnUse">
<stop stop-color="#FEB273"/>
<stop offset="1" stop-color="#EC4A0A"/>
</linearGradient>
<linearGradient id="paint5_linear_331_33898" x1="124.761" y1="94.8222" x2="137.144" y2="94.8222" gradientUnits="userSpaceOnUse">
<stop stop-color="#FEB273"/>
<stop offset="1" stop-color="#EC4A0A"/>
</linearGradient>
<linearGradient id="paint6_linear_331_33898" x1="134.046" y1="87.5202" x2="134.046" y2="98.474" gradientUnits="userSpaceOnUse">
<stop offset="0.3" stop-color="#FEB273" stop-opacity="0"/>
<stop offset="1" stop-color="#C4320A" stop-opacity="0.7"/>
</linearGradient>
<linearGradient id="paint7_linear_331_33898" x1="127.855" y1="83.8739" x2="127.855" y2="94.82" gradientUnits="userSpaceOnUse">
<stop offset="0.3" stop-color="#FEB273" stop-opacity="0"/>
<stop offset="1" stop-color="#C4320A" stop-opacity="0.7"/>
</linearGradient>
<linearGradient id="paint8_linear_331_33898" x1="127.855" y1="87.5202" x2="127.855" y2="98.474" gradientUnits="userSpaceOnUse">
<stop offset="0.3" stop-color="#FEB273" stop-opacity="0"/>
<stop offset="1" stop-color="#C4320A" stop-opacity="0.7"/>
</linearGradient>
<linearGradient id="paint9_linear_331_33898" x1="134.046" y1="83.8739" x2="134.046" y2="94.82" gradientUnits="userSpaceOnUse">
<stop offset="0.3" stop-color="#FEB273" stop-opacity="0"/>
<stop offset="1" stop-color="#C4320A" stop-opacity="0.7"/>
</linearGradient>
<linearGradient id="paint10_linear_331_33898" x1="124.761" y1="87.5221" x2="137.144" y2="87.5221" gradientUnits="userSpaceOnUse">
<stop stop-color="#FEB273"/>
<stop offset="1" stop-color="#EC4A0A"/>
</linearGradient>
<linearGradient id="paint11_linear_331_33898" x1="117.809" y1="75.2513" x2="130.191" y2="75.2513" gradientUnits="userSpaceOnUse">
<stop stop-color="#FEB273"/>
<stop offset="1" stop-color="#EC4A0A"/>
</linearGradient>
<linearGradient id="paint12_linear_331_33898" x1="124" y1="80.7229" x2="130.191" y2="80.7229" gradientUnits="userSpaceOnUse">
<stop stop-color="#FD853A"/>
<stop offset="1" stop-color="#EC4A0A"/>
</linearGradient>
<linearGradient id="paint13_linear_331_33898" x1="117.809" y1="80.7229" x2="124" y2="80.7229" gradientUnits="userSpaceOnUse">
<stop stop-color="#FD853A"/>
<stop offset="1" stop-color="#EC4A0A"/>
</linearGradient>
<linearGradient id="paint14_linear_331_33898" x1="120.893" y1="85.2506" x2="127.092" y2="85.2506" gradientUnits="userSpaceOnUse">
<stop stop-color="#FEB273"/>
<stop offset="1" stop-color="#EC4A0A"/>
</linearGradient>
<linearGradient id="paint15_linear_331_33898" x1="123.992" y1="87.9848" x2="127.092" y2="87.9848" gradientUnits="userSpaceOnUse">
<stop stop-color="#FD853A"/>
<stop offset="1" stop-color="#EC4A0A"/>
</linearGradient>
<linearGradient id="paint16_linear_331_33898" x1="120.893" y1="87.9848" x2="123.992" y2="87.9848" gradientUnits="userSpaceOnUse">
<stop stop-color="#FD853A"/>
<stop offset="1" stop-color="#EC4A0A"/>
</linearGradient>
<linearGradient id="paint17_linear_331_33898" x1="146.99" y1="49.1359" x2="146.99" y2="130.397" gradientUnits="userSpaceOnUse">
<stop offset="0.3" stop-color="#ECF1F5" stop-opacity="0"/>
<stop offset="1" stop-color="#DAE1E7" stop-opacity="0.4"/>
</linearGradient>
<linearGradient id="paint18_linear_331_33898" x1="100.994" y1="49.1359" x2="100.994" y2="130.397" gradientUnits="userSpaceOnUse">
<stop offset="0.3" stop-color="#ECF1F5" stop-opacity="0"/>
<stop offset="1" stop-color="#DAE1E7" stop-opacity="0.4"/>
</linearGradient>
</defs>
</svg>
